#!OML:ASF H:\Dans Jumps\Project 1\Capture day 1\Session 1\subject.ASF
:FULLY-SPECIFIED
:DEGREES
511
root 0.523609 17.5921 11.1125 11.6418 -2.09716 -3.0219
lowerback 4.54038 0.783622 -0.216451
upperback 5.51464 1.00482 1.31228
thorax 3.10712 0.464603 1.45463
lowerneck -15.8187 0.792833 -1.65337
upperneck 33.1174 1.36277 0.929555
head 13.8794 0.504139 0.882739
rclavicle -5.58461e-015 -2.39163e-015
rhumerus -13.3676 -0.0347164 -88.9547
rradius 29.6056
rwrist 25.6416
rhand -22.2937 -26.9826
rfingers 7.12502
rthumb 4.12515 -56.9224
lclavicle -5.58461e-015 -2.39163e-015
lhumerus -13.4109 -14.3495 92.1675
lradius 26.7911
lwrist 15.2246
lhand -27.7321 -7.10419
lfingers 7.12502
lthumb -1.12722 22.8726
rfemur -21.3301 -1.51287 22.0183
rtibia 26.3444
rfoot -15.101 0.390792
rtoes 10.1773
lfemur -19.0514 7.22264 -17.8822
ltibia 25.5923
lfoot -12.9258 9.00624
ltoes -13.3231
512
root 0.521782 17.592 11.1102 11.6205 -2.13224 -3.00694
lowerback 4.5208 0.786601 -0.217393
upperback 5.52553 1.00867 1.30593
thorax 3.12941 0.466453 1.44898
lowerneck -15.8386 0.805 -1.64484
upperneck 33.1744 1.38272 0.917772
head 13.9089 0.511537 0.8806
rclavicle -1.17407e-015 -3.33508e-015
rhumerus -13.3762 0.0729596 -88.979
rradius 29.6486
rwrist 25.5986
rhand -22.2906 -26.9883
rfingers 7.12502
rthumb 4.12812 -56.9281
lclavicle -1.17407e-015 -3.33508e-015
lhumerus -13.3884 -14.2984 92.1194
lradius 26.7001
lwrist 15.1416
lhand -27.6838 -7.04365
lfingers 7.12502
lthumb -1.08054 22.9334
rfemur -21.3178 -1.52447 22.0073
rtibia 26.3463
rfoot -15.107 0.433632
rtoes 10.1924
lfemur -19.0226 7.2342 -17.8936
ltibia 25.5821
lfoot -12.9157 9.02251
ltoes -13.3205
513
root 0.519974 17.5921 11.108 11.5999 -2.15937 -2.99354
lowerback 4.50445 0.787033 -0.217299
upperback 5.53368 1.00915 1.30217
thorax 3.1471 0.466643 1.4454
lowerneck -15.8575 0.817954 -1.6369
upperneck 33.2328 1.40357 0.907253
head 13.9389 0.5194 0.879228
rclavicle 1.19588e-014 1.00427e-014
rhumerus -13.3871 0.157095 -88.9997
rradius 29.6773
rwrist 25.5708
rhand -22.2926 -26.9839
rfingers 7.12502
rthumb 4.12625 -56.9237
lclavicle 1.19588e-014 1.00427e-014
lhumerus -13.3741 -14.2458 92.0745
lradius 26.5964
lwrist 15.0605
lhand -27.6474 -7.01023
lfingers 7.12502
lthumb -1.04539 22.967
rfemur -21.3027 -1.54424 21.9988
rtibia 26.3426
rfoot -15.1097 0.479975
rtoes 10.2175
lfemur -18.9952 7.24229 -17.9031
ltibia 25.5726
lfoot -12.9097 9.03377
ltoes -13.2995
514
root 0.518131 17.5924 11.1058 11.5814 -2.17803 -2.9855
lowerback 4.49021 0.785695 -0.212336
upperback 5.53569 1.00736 1.30297
thorax 3.15728 0.465845 1.44372
lowerneck -15.8505 0.828037 -1.63369
upperneck 33.2815 1.42107 0.896877
head 13.9588 0.525398 0.877844
rclavicle 1.77213e-014 1.03461e-014
rhumerus -13.4088 0.213203 -89.0142
rradius 29.6931
rwrist 25.5601
rhand -22.2921 -26.9756
rfingers 7.12502
rthumb 4.12671 -56.9154
lclavicle 1.77213e-014 1.03461e-014
lhumerus -13.3731 -14.1915 92.0368
lradius 26.4804
lwrist 14.9791
lhand -27.6186 -6.98278
lfingers 7.12502
lthumb -1.01751 22.9945
rfemur -21.2874 -1.56762 21.997
rtibia 26.3346
rfoot -15.1085 0.524937
rtoes 10.2515
lfemur -18.9727 7.24636 -17.9065
ltibia 25.5654
lfoot -12.9056 9.04409
ltoes -13.2682
515
root 0.516273 17.5927 11.1036 11.5645 -2.18775 -2.98305
lowerback 4.47662 0.782775 -0.200504
upperback 5.53311 1.00358 1.30768
thorax 3.16241 0.464266 1.44219
lowerneck -15.8192 0.837462 -1.63553
upperneck 33.3235 1.43849 0.887095
head 13.9703 0.530935 0.877269
rclavicle 1.97185e-014 2.96624e-015
rhumerus -13.436 0.245151 -89.0209
rradius 29.688
rwrist 25.5682
rhand -22.2922 -26.9602
rfingers 7.12502
rthumb 4.12658 -56.9
lclavicle 1.97185e-014 2.96624e-015
lhumerus -13.3796 -14.1487 92.0046
lradius 26.3508
lwrist 14.9085
lhand -27.591 -6.94896
lfingers 7.12502
lthumb -0.990891 23.0285
rfemur -21.272 -1.59365 22.0021
rtibia 26.3242
rfoot -15.1041 0.566382
rtoes 10.2958
lfemur -18.956 7.24678 -17.9035
ltibia 25.5624
lfoot -12.9014 9.05381
ltoes -13.2414
516
root 0.514347 17.593 11.101 11.5479 -2.19223 -2.98278
lowerback 4.46395 0.779586 -0.186574
upperback 5.52956 0.999443 1.31499
thorax 3.16602 0.462544 1.44214
lowerneck -15.7728 0.845986 -1.64414
upperneck 33.3613 1.45504 0.88128
head 13.9764 0.53587 0.879135
rclavicle -9.95166e-015 -1.30639e-014
rhumerus -13.4613 0.264587 -89.0205
rradius 29.6655
rwrist 25.5825
rhand -22.2873 -26.9489
rfingers 7.12502
rthumb 4.13134 -56.8886
lclavicle -9.95166e-015 -1.30639e-014
lhumerus -13.3859 -14.1099 91.9759
lradius 26.2056
lwrist 14.8369
lhand -27.5585 -6.89883
lfingers 7.12502
lthumb -0.959477 23.0788
rfemur -21.258 -1.61651 22.0101
rtibia 26.314
rfoot -15.0974 0.600073
rtoes 10.3415
lfemur -18.9451 7.24313 -17.8974
ltibia 25.5643
lfoot -12.894 9.06714
ltoes -13.2337
517
root 0.512243 17.5932 11.0979 11.5325 -2.19247 -2.9863
lowerback 4.4526 0.776522 -0.169545
upperback 5.52821 0.995481 1.32378
thorax 3.17121 0.460976 1.44189
lowerneck -15.7283 0.854367 -1.65239
upperneck 33.3958 1.47111 0.875994
head 13.9816 0.54076 0.881053
rclavicle 7.08792e-015 5.75233e-015
rhumerus -13.4876 0.279342 -89.0155
rradius 29.6417
rwrist 25.5964
rhand -22.275 -26.9445
rfingers 7.12502
rthumb 4.1432 -56.8839
lclavicle 7.08792e-015 5.75233e-015
lhumerus -13.3839 -14.0722 91.9459
lradius 26.0454
lwrist 14.7574
lhand -27.5214 -6.84007
lfingers 7.12502
lthumb -0.923674 23.1377
rfemur -21.2486 -1.62876 22.0225
rtibia 26.3064
rfoot -15.088 0.619096
rtoes 10.3842
lfemur -18.9426 7.23661 -17.8859
ltibia 25.5717
lfoot -12.8828 9.08222
ltoes -13.2347
518
root 0.510028 17.5932 11.0945 11.5159 -2.18956 -2.98871
lowerback 4.44263 0.773466 -0.154241
upperback 5.53127 0.99146 1.33223
thorax 3.18019 0.459289 1.44228
lowerneck -15.6937 0.861694 -1.66073
upperneck 33.4289 1.48439 0.874912
head 13.9883 0.545008 0.8843
rclavicle -2.13072e-015 -9.80257e-015
rhumerus -13.5117 0.297295 -89.0071
rradius 29.6204
rwrist 25.5991
rhand -22.2565 -26.9542
rfingers 7.12502
rthumb 4.16108 -56.8933
lclavicle -2.13072e-015 -9.80257e-015
lhumerus -13.372 -14.0249 91.9142
lradius 25.8715
lwrist 14.6588
lhand -27.4844 -6.77671
lfingers 7.12502
lthumb -0.887956 23.2012
rfemur -21.2408 -1.63639 22.034
rtibia 26.3027
rfoot -15.079 0.629796
rtoes 10.4241
lfemur -18.9441 7.22898 -17.875
ltibia 25.5837
lfoot -12.8651 9.09903
ltoes -13.2659
